# xmcd
#
# Track frame offsets: 
#        150
#        18414
#        32719
#        45395
#        60051
#        79136
#        96252
#        110797
#        126929
#        140807
#        170166
#
# Disc length: 2752 seconds
#
# Revision: 5
# Processed by: cddbd v1.5.2PL0 Copyright (c) Steve Scherf et al.
# Submitted via: ExactAudioCopy v0.95b4
#
DISCID=940abe0b
DTITLE=Various Artist - ZZ Top (A Tribute From Friends)
DYEAR=2011
DGENRE=Blues-Rock
TTITLE0=The M.O.B. - Sharp Dressed Man
TTITLE1=Filter - Gimme All Your Lovin'
TTITLE2=Grace Potter and The Nocturnals - Tush
TTITLE3=Nickelback - Legs
TTITLE4=Wolfmother - Cheap Sunglasses
TTITLE5=Duff McKagan's Loaded - Got Me Under Pressure
TTITLE6=Coheed and Cambria - Beer Drinkers And Hell Raisers
TTITLE7=Mastodon - Just Got Paid
TTITLE8=Wycleff Jean - Rough Boy
TTITLE9=Daughtry - Waitin' For The Bus_Jesus Just Left Chicago
TTITLE10=Jamey Johnson - La Grange
EXTD=
EXTT0=
EXTT1=
EXTT2=
EXTT3=
EXTT4=
EXTT5=
EXTT6=
EXTT7=
EXTT8=
EXTT9=
EXTT10=
PLAYORDER=
